<svg xmlns="http://www.w3.org/2000/svg" xmlns:xlink="http://www.w3.org/1999/xlink" width="138.999" height="66" viewBox="0 0 138.999 66">
  <defs>
    <clipPath id="clip-path">
      <path id="Path_17" data-name="Path 17" d="M0-1.9H139v-66H0Z" transform="translate(0 67.9)" fill="none"/>
    </clipPath>
  </defs>
  <g id="Group_48" data-name="Group 48" transform="translate(0 67.9)">
    <path id="Path_13" data-name="Path 13" d="M96.968-51.524H87.537v-1.422h9.431Z" transform="translate(-0.614 -0.325)" fill="#2b2e34"/>
    <g id="Group_16" data-name="Group 16" transform="translate(0 -67.9)" clip-path="url(#clip-path)">
      <g id="Group_13" data-name="Group 13" transform="translate(0 0)">
        <path id="Path_14" data-name="Path 14" d="M-.485,0C8.757,0,16.1,4.269,16.1,11.572c0,7.092-6.95,12.066-16.865,12.066-9.243,0-16.582-4.3-16.582-11.642C-17.35,4.9-10.434,0-.485,0M-12.975,11.749c0,6.491,5.187,10.336,12.349,10.336,6.88,0,12.348-3.492,12.348-10.161C11.721,5.4,6.5,1.552-.662,1.552c-6.844,0-12.313,3.457-12.313,10.2" transform="translate(17.35)" fill="#ad974f"/>
      </g>
      <g id="Group_14" data-name="Group 14" transform="translate(35.588 0.706)">
        <path id="Path_15" data-name="Path 15" d="M-.5-.659c-3.81-6.28-6.985-11.184-10.514-16.829-1.3,4.48-2.716,9.808-4.374,16.158a7.3,7.3,0,0,0-1.305-.1,6.382,6.382,0,0,0-1.27.1c2.223-7.373,4.411-14.747,6.456-22.226h.283c4.3,7.021,7.973,12.56,11.96,18.7,4.128-6.209,7.621-11.573,11.713-18.7h.318c2.082,7.8,4.093,14.958,6.316,22.226a16.149,16.149,0,0,0-2.118-.1,16.735,16.735,0,0,0-2.151.1c-1.446-5.962-2.894-11.183-4.128-16.229C7.047-11.914,3.836-7.221-.185-.659Z" transform="translate(17.967 23.556)" fill="#ad974f"/>
      </g>
      <g id="Group_15" data-name="Group 15" transform="translate(109.645 0.706)">
        <path id="Path_16" data-name="Path 16" d="M-.062-.636c-.706,0-1.446.106-2.152.141.142-2.081.353-5.221.353-11.254a99.736,99.736,0,0,0-.353-10.972c1.164.035,2.541.141,3.7.141,1.129,0,7.163-.141,9.35-.141,7.9,0,11.537,1.552,11.537,6.6,0,3.881-2.153,5.715-6.739,6.351a8.623,8.623,0,0,1,2.187,2.611c1.694,2.857,2.788,6.173,5.821,6.209a5.944,5.944,0,0,0,3.282-.989l.212.318A8.636,8.636,0,0,1,22.024-.142c-8.891,0-6.033-9.384-12.665-9.384H1.7c.071,4.586.247,7.126.353,9.031C1.35-.53.609-.636-.062-.636M1.843-20.887c-.07,1.588-.141,3.6-.141,9.526H10.84c5.891,0,7.515-1.834,7.515-4.763s-1.623-4.763-7.515-4.763Z" transform="translate(2.214 22.721)" fill="#ad974f"/>
      </g>
    </g>
    <g id="Group_17" data-name="Group 17" transform="translate(93.108 -53.271)">
      <path id="Path_18" data-name="Path 18" d="M-.05,0H-.2V1.422H.666V1H.514V0Z" transform="translate(0.202)" fill="#ad974f"/>
    </g>
    <g id="Group_18" data-name="Group 18" transform="translate(90.715 -53.271)">
      <path id="Path_19" data-name="Path 19" d="M-.05,0V1H-.2v.426H.665V1H.513V0Z" transform="translate(0.202)" fill="#ad974f"/>
    </g>
    <g id="Group_19" data-name="Group 19" transform="translate(89.518 -53.271)">
      <path id="Path_20" data-name="Path 20" d="M-.05,0H-.2V1.422H.666V1H.514V0Z" transform="translate(0.202)" fill="#ad974f"/>
    </g>
    <g id="Group_20" data-name="Group 20" transform="translate(87.125 -53.271)">
      <path id="Path_21" data-name="Path 21" d="M-.05,0V1H-.2v.426H.666V1H.514V0Z" transform="translate(0.202)" fill="#ad974f"/>
    </g>
    <g id="Group_21" data-name="Group 21" transform="translate(85.928 -53.271)">
      <path id="Path_22" data-name="Path 22" d="M-.284-.465V-.892H-.436v-1H-1v1h-.153v.426Z" transform="translate(1.152 1.887)" fill="#ad974f"/>
    </g>
    <g id="Group_22" data-name="Group 22" transform="translate(91.911 -53.271)">
      <path id="Path_23" data-name="Path 23" d="M-.05,0V1H-.2v.426H.666V0H-.05Z" transform="translate(0.202)" fill="#ad974f"/>
    </g>
    <g id="Group_23" data-name="Group 23" transform="translate(88.321 -53.271)">
      <path id="Path_24" data-name="Path 24" d="M-.05,0V1H-.2v.426H.665V0H-.05Z" transform="translate(0.202)" fill="#ad974f"/>
    </g>
    <g id="Group_24" data-name="Group 24" transform="translate(94.304 -53.271)">
      <path id="Path_25" data-name="Path 25" d="M-.05,0V1H-.2v.426H.666V1H.513V0Z" transform="translate(0.202)" fill="#ad974f"/>
    </g>
    <g id="Group_26" data-name="Group 26" transform="translate(0 -67.9)" clip-path="url(#clip-path)">
      <g id="Group_25" data-name="Group 25" transform="translate(74.973 0.706)">
        <path id="Path_26" data-name="Path 26" d="M-.733-.4H-2.751L-9.836-11.71a10.331,10.331,0,0,1,.81-1.247c.036-.036.036-.036.036-.071.388-.6.952-.776,1.94-.848v-.352c-.706,0-1.8.106-2.506.106-.67,0-1.41-.106-1.8-.106A1.652,1.652,0,0,0-13.19-13.1C-17.459-5.691-21.127.414-26.208,8c1.094-.07,1.8-.1,2.5-.1s1.376.035,2.47.1c1.164-2.187,2.329-4.374,3.563-6.562h2.185V.886h-.2V-.4h-.966c1.993-3.539,4.121-7.079,6.447-10.716L-3.487-.4h-.977V.886h-.2v.55h2.689C-.594,3.694.711,5.917,1.876,8a9.385,9.385,0,0,1,1.587-.1A9.113,9.113,0,0,1,5.05,8C3.246,5.43,1.265,2.553-.733-.4" transform="translate(26.208 14.228)" fill="#ad974f"/>
      </g>
    </g>
    <g id="Group_27" data-name="Group 27" transform="translate(95.501 -53.271)">
      <path id="Path_28" data-name="Path 28" d="M-.05,0V1H-.2v.426H.666V1H.513V0Z" transform="translate(0.202)" fill="#ad974f"/>
    </g>
    <g id="Group_44" data-name="Group 44" transform="translate(0 -67.9)" clip-path="url(#clip-path)">
      <g id="Group_28" data-name="Group 28" transform="translate(0 29.515)">
        <path id="Path_29" data-name="Path 29" d="M-.247-.227l-5.687,4.3c.052,1.819.154,3.023.205,3.944-.512-.025-1.051-.1-1.538-.1-.512,0-1.05.077-1.562.1.1-1.511.256-3.791.256-8.172a72.555,72.555,0,0,0-.256-7.968c.512.025,1.05.1,1.562.1.487,0,1.025-.078,1.538-.1A72.556,72.556,0,0,0-5.985-.15c0,1.051,0,1.922.025,2.664L7.694-8.118a5.948,5.948,0,0,0,1.025.077,8.01,8.01,0,0,0,1.127-.077L1.9-2c3.74,7.02,4.74,9.684,7.686,9.684a4.522,4.522,0,0,0,2.229-.641l.128.23A6.845,6.845,0,0,1,8,8.355c-4.2,0-5.2-3.048-8.25-8.582" transform="translate(8.829 8.118)" fill="#ad974f"/>
      </g>
      <g id="Group_29" data-name="Group 29" transform="translate(22.796 29.515)">
        <path id="Path_30" data-name="Path 30" d="M-.52-.462c-.512,0-1.05.077-1.563.1.1-1.459.231-3.637.257-7.736H-15.737c0,4.1.154,6.277.256,7.736-.512-.025-1.051-.1-1.537-.1-.512,0-1.051.077-1.563.1.1-1.511.257-3.791.257-8.172a72.422,72.422,0,0,0-.257-7.968c.512.026,1.051.1,1.563.1.486,0,1.025-.077,1.537-.1a61.6,61.6,0,0,0-.256,7.07H-1.826c-.025-4.585-.154-5.635-.257-7.07.513.026,1.051.1,1.563.1.487,0,1.025-.077,1.537-.1A72.555,72.555,0,0,0,.761-8.531c0,4.381.154,6.661.256,8.172C.5-.385-.033-.462-.52-.462" transform="translate(18.581 16.499)" fill="#ad974f"/>
      </g>
      <g id="Group_30" data-name="Group 30" transform="translate(44.85 29.515)">
        <path id="Path_31" data-name="Path 31" d="M-.31,0C-.029,0,.509.077,1,.077,1.508.077,2.3,0,2.815,0V.257C2.1.308,1.687.435,1.406.871c0,.025,0,.025-.026.052C4.428,5.687,8.4,11.58,11.6,16.139a6.653,6.653,0,0,0-1.153-.076,6.865,6.865,0,0,0-1.153.076C8.45,14.628,7.5,13.014,6.5,11.375H-4.9c-.9,1.588-1.742,3.177-2.588,4.765-.794-.051-1.281-.076-1.793-.076s-1.025.025-1.819.076C-7.407,10.632-4.743,6.2-1.643.82A1.2,1.2,0,0,1-.31,0M-4.154,10.043H5.709C3.994,7.276,2.226,4.509.662,2.05-1.079,4.765-2.668,7.4-4.154,10.043" transform="translate(11.096)" fill="#ad974f"/>
      </g>
      <g id="Group_31" data-name="Group 31" transform="translate(70.026 29.515)">
        <path id="Path_32" data-name="Path 32" d="M-.045-.462c-.512,0-1.05.077-1.563.1.1-1.511.257-3.791.257-8.172A72.42,72.42,0,0,0-1.608-16.5c.513.026,1.051.1,1.563.1.487,0,1.025-.077,1.538-.1a72.42,72.42,0,0,0-.257,7.968c0,4.381.154,6.661.257,8.172C.98-.385.442-.462-.045-.462" transform="translate(1.608 16.499)" fill="#ad974f"/>
      </g>
      <g id="Group_32" data-name="Group 32" transform="translate(77.521 29.515)">
        <path id="Path_33" data-name="Path 33" d="M-.045-.462c-.512,0-1.05.077-1.563.1.1-1.511.257-3.791.257-8.172A72.42,72.42,0,0,0-1.608-16.5c.846.026,1.845.1,2.691.1.819,0,5.2-.1,6.789-.1,5.739,0,8.378,1.128,8.378,4.791,0,2.818-1.563,4.151-4.893,4.611a6.265,6.265,0,0,1,1.587,1.9C14.174-3.126,14.968-.718,17.17-.692a4.318,4.318,0,0,0,2.383-.717l.154.23A6.274,6.274,0,0,1,15.992-.1c-6.456,0-4.381-6.815-9.2-6.815H1.236c.052,3.331.179,5.175.257,6.558C.98-.385.442-.462-.045-.462m1.383-14.7c-.051,1.153-.1,2.613-.1,6.917H7.871c4.279,0,5.457-1.333,5.457-3.458s-1.178-3.458-5.457-3.458Z" transform="translate(1.608 16.499)" fill="#ad974f"/>
      </g>
      <g id="Group_33" data-name="Group 33" transform="translate(99.86 29.515)">
        <path id="Path_34" data-name="Path 34" d="M-.31,0C-.029,0,.509.077,1,.077,1.508.077,2.3,0,2.815,0V.257C2.1.308,1.687.435,1.406.871c0,.025,0,.025-.026.052C4.429,5.687,8.4,11.58,11.6,16.139a6.653,6.653,0,0,0-1.153-.076,6.865,6.865,0,0,0-1.153.076C8.451,14.628,7.5,13.014,6.5,11.375H-4.9c-.9,1.588-1.742,3.177-2.588,4.765-.794-.051-1.281-.076-1.793-.076s-1.025.025-1.819.076C-7.407,10.632-4.743,6.2-1.643.82A1.2,1.2,0,0,1-.31,0M-4.154,10.043H5.709C3.994,7.276,2.226,4.509.662,2.05-1.079,4.765-2.668,7.4-4.154,10.043" transform="translate(11.096)" fill="#ad974f"/>
      </g>
      <g id="Group_34" data-name="Group 34" transform="translate(119.785 29.515)">
        <path id="Path_35" data-name="Path 35" d="M-.277-.462c-.512,0-1.05.077-1.537.1.077-1.511.256-3.791.256-8.172,0-3.971-.076-5.457-.154-6.66H-7.68a2.251,2.251,0,0,0-1.972.948l-.23-.1L-9.5-16.4c0-.1.1-.1.18-.1H8.716c.1,0,.205,0,.231.1l.384,2.049-.23.1a2.223,2.223,0,0,0-1.973-.948H1.133c-.052,1.2-.1,2.69-.1,6.66,0,4.381.154,6.661.257,8.172C.774-.385.236-.462-.277-.462" transform="translate(9.883 16.499)" fill="#ad974f"/>
      </g>
      <g id="Group_35" data-name="Group 35" transform="translate(23.786 54.97)">
        <path id="Path_36" data-name="Path 36" d="M-.317-.028c.24.175.24.371.24,1.158V2.265c0,1.267-.109,2.315-1.223,2.315H-7.524c-2.687,0-4.237-2.6-1.922-5.089l-.219-.459C-12.919,2.113-10.822,5.411-8,5.411H-.688a1.951,1.951,0,0,0,1.944-2.25V.475A3.057,3.057,0,0,1,1.474-.858V-.989l-1.813.9Z" transform="translate(11.315 0.989)" fill="#ad974f"/>
      </g>
      <g id="Group_36" data-name="Group 36" transform="translate(28.21 52.022)">
        <path id="Path_37" data-name="Path 37" d="M-.024-.048a.83.83,0,0,0,.83-.83.83.83,0,0,0-.83-.83A.84.84,0,0,0-.854-.9a.822.822,0,0,0,.83.851" transform="translate(0.854 1.708)" fill="#ad974f"/>
      </g>
      <g id="Group_37" data-name="Group 37" transform="translate(30.809 52.022)">
        <path id="Path_38" data-name="Path 38" d="M-.024-.048a.83.83,0,0,0,.83-.83.83.83,0,0,0-.83-.83A.84.84,0,0,0-.854-.9a.822.822,0,0,0,.83.851" transform="translate(0.854 1.708)" fill="#ad974f"/>
      </g>
      <g id="Group_38" data-name="Group 38" transform="translate(61.54 64.318)">
        <path id="Path_39" data-name="Path 39" d="M-.023,0A.821.821,0,0,0-.809.83a.827.827,0,0,0,.786.851A.863.863,0,0,0,.807.83.859.859,0,0,0-.023,0" transform="translate(0.809)" fill="#ad974f"/>
      </g>
      <g id="Group_39" data-name="Group 39" transform="translate(64.096 64.318)">
        <path id="Path_40" data-name="Path 40" d="M-.024,0a.859.859,0,0,0-.83.83.821.821,0,0,0,.83.851A.827.827,0,0,0,.762.83.821.821,0,0,0-.024,0" transform="translate(0.854)" fill="#ad974f"/>
      </g>
      <g id="Group_40" data-name="Group 40" transform="translate(71.542 50.362)">
        <path id="Path_41" data-name="Path 41" d="M-.024-.048a.83.83,0,0,0,.83-.83.83.83,0,0,0-.83-.83A.84.84,0,0,0-.854-.9a.821.821,0,0,0,.83.851" transform="translate(0.854 1.708)" fill="#ad974f"/>
      </g>
      <g id="Group_41" data-name="Group 41" transform="translate(37.229 54.892)">
        <path id="Path_42" data-name="Path 42" d="M-1,0a6.125,6.125,0,0,0-2.73,1.31,4.874,4.874,0,0,0-.939.961l.087.393a7.511,7.511,0,0,1,1.026-.786A5.53,5.53,0,0,1-1.2.937C1.6.588,2.3,2.247,2.3,3.536c0,.634.153,2.032-.983,2.032H-6.332A1.753,1.753,0,0,1-7.948,4.016V1.461A3.046,3.046,0,0,1-7.729.129V0l-1.813.9.022.066c.24.174.24.37.24,1.157V3.6c0,.459.065,1.966-1.223,1.966H-28.766A1.7,1.7,0,0,1-30.381,4.1V1.832A8.148,8.148,0,0,1-30.12,0h-1.857a8.078,8.078,0,0,1,.262,1.834V7.86a2.928,2.928,0,0,1-.306,1.179A2.261,2.261,0,0,1-34.226,10.2a3.065,3.065,0,0,1-1.615-.436l.021.545a3.708,3.708,0,0,0,2.293.721,3.03,3.03,0,0,0,3.145-2.97V5.5a2.419,2.419,0,0,0,1.354.808,3.127,3.127,0,0,0,.764.087H-9.891A1.714,1.714,0,0,0-8.122,5.261,2.523,2.523,0,0,0-6.68,6.288a3.759,3.759,0,0,0,.851.109H1.814c2.053,0,1.813-2.358,1.813-3.1C3.627,1.308,1.814-.483-1,0" transform="translate(35.841 0.081)" fill="#ad974f"/>
      </g>
      <g id="Group_42" data-name="Group 42" transform="translate(81.74 54.953)">
        <path id="Path_43" data-name="Path 43" d="M-.894-.16C-2.728-.4-3.274-1.775-3.1-3.392A1.842,1.842,0,0,1-.915-5.183,1.66,1.66,0,0,1,.439-4.2L1.53-4.549A3.157,3.157,0,0,0-.654-5.663a3.371,3.371,0,0,0-4,2.839A3,3,0,0,0-3.427-.116H-13.641A1.3,1.3,0,0,1-14.929-1.47v-.808c0-1.31-.59-2.424-2.905-2.424a3.531,3.531,0,0,0-3.778,3.276,1.259,1.259,0,0,1-1.223,1.31h-2.031a1.7,1.7,0,0,1-1.616-1.463V-3.85a8.134,8.134,0,0,1,.262-1.834h-1.857a8.078,8.078,0,0,1,.262,1.834V2.177a2.949,2.949,0,0,1-.306,1.18,2.263,2.263,0,0,1-2.206,1.158,3.061,3.061,0,0,1-1.616-.437l.022.546a3.7,3.7,0,0,0,2.293.72,3.028,3.028,0,0,0,3.144-2.97V-.181a2.425,2.425,0,0,0,1.354.808,3.188,3.188,0,0,0,.765.087h1.856A2.007,2.007,0,0,0-21.241.3a3.062,3.062,0,0,0,2.578,1.638A3.3,3.3,0,0,0-15.431.1a1.858,1.858,0,0,0,1.4.611H-.915A4.513,4.513,0,0,0,1.138.322L1.094-.4A3.976,3.976,0,0,1-.894-.16m-16.9,1.42a2.786,2.786,0,0,1-2.4-2.949,2.482,2.482,0,0,1,2.358-2.555c1.682,0,1.508,1.77,1.573,3.342.044,1.442-.459,2.163-1.528,2.163" transform="translate(31.942 5.702)" fill="#ad974f"/>
      </g>
      <g id="Group_43" data-name="Group 43" transform="translate(133.977 1.041)">
        <path id="Path_44" data-name="Path 44" d="M-.091-.046A1.551,1.551,0,0,1-1.678,1.541,1.545,1.545,0,0,1-3.26-.046,1.542,1.542,0,0,1-1.678-1.632,1.548,1.548,0,0,1-.091-.046M-3-.051A1.275,1.275,0,0,0-1.678,1.288,1.281,1.281,0,0,0-.353-.051,1.273,1.273,0,0,0-1.678-1.379,1.27,1.27,0,0,0-3-.051m1.325.192c-.048,0-.113,0-.144,0h-.126V.751h-.331V-.856h.6c.418,0,.662.2.662.514a.417.417,0,0,1-.331.427l.38.667h-.366Zm.014-.249c.2,0,.3-.083.3-.226s-.108-.231-.3-.231h-.284v.458Z" transform="translate(3.26 1.632)" fill="#ad974f"/>
      </g>
    </g>
  </g>
</svg>
